<?xml version="1.0" encoding="UTF-8"?>
<!-- Generator: visioncortex VTracer 0.6.4 -->
<svg version="1.1" xmlns="http://www.w3.org/2000/svg" width="1024" height="1024">
<path d="M0 0 C0.95 0.2 1.9 0.4 2.87 0.6 C16.73 3.58 29.8 7.86 42.92 13.18 C45.58 14.23 48.28 15.14 51 16 C51 16.66 51 17.32 51 18 C51.81 18.23 52.62 18.45 53.46 18.68 C57.88 20.33 61.68 22.59 65.69 25.06 C66.49 25.55 67.28 26.05 68.11 26.55 C74.51 30.57 80.36 34.95 86 40 C86.98 40.86 87.97 41.73 88.98 42.62 C99.85 52.28 109.11 62.78 117 75 C117.61 75.93 118.21 76.86 118.84 77.82 C136.14 105.9 140.91 136.33 134.81 168.38 C131.69 186.51 140.69 203.04 150.77 217.54 C153.19 220.88 155.65 224.19 158.18 227.46 C164.31 235.43 168.6 242.63 168 253 C165.71 262.48 160.03 267.95 152 273 C149.37 274.42 146.71 275.72 144 277 C144.37 281.29 144.78 285.3 146.06 289.44 C147.47 294.79 148.23 300.04 146.05 305.28 C143.64 309.35 140.94 312.3 137 315 C137.18 315.76 137.36 316.52 137.54 317.31 C139 324.37 139.47 329.55 136 336 C134.52 338.21 132.98 340.31 131.3 342.37 C128.86 345.43 128.95 347.23 129.23 351.06 C129.32 352.6 129.32 352.6 129.41 354.17 C129.55 356.31 129.7 358.46 129.86 360.6 C130.42 370.46 129.21 379.44 122.72 387.22 C116.7 393.45 110.24 396.5 102 399 C101.1 399.29 101.1 399.29 100.18 399.59 C85.87 402.31 70.2 399.31 55.93 397.42 C48.56 396.47 41.23 395.77 33.79 395.62 C33.1 395.6 32.41 395.57 31.69 395.55 C26.67 395.53 23.81 396.77 20 400 C15.43 406.92 14.22 416.51 12.34 424.52 C11.81 426.76 11.27 429 10.74 431.23 C10.39 432.67 10.05 434.11 9.71 435.55 C9.47 436.54 9.47 436.54 9.23 437.55 C6.09 450.46 6.09 450.46 8.83 463.13 C11.49 467.38 14.78 471.16 18 475 C45.08 507.46 77 561.73 77 605 C70.07 604.39 63.76 602.63 57.12 600.56 C55.99 600.21 54.85 599.85 53.68 599.49 C20 588.8 -11.58 573.44 -43.02 557.53 C-67.87 544.88 -67.87 544.88 -93.04 532.91 C-93.94 532.5 -94.84 532.09 -95.77 531.67 C-99.74 529.71 -99.74 529.71 -104 529 C-104 528.34 -104 527.68 -104 527 C-104.53 526.83 -105.07 526.67 -105.62 526.5 C-110.63 524.89 -115.42 523.01 -120.24 520.89 C-158.85 504.05 -199.51 492.89 -241 486 C-242.69 485.72 -242.69 485.72 -244.41 485.43 C-247.27 484.95 -250.14 484.47 -253 484 C-253 483.34 -253 482.68 -253 482 C-252.34 482 -251.68 482 -251 482 C-250.76 481.44 -250.53 480.88 -250.28 480.3 C-248.71 477.48 -246.79 475.52 -244.5 473.25 C-243.71 472.45 -242.91 471.65 -242.09 470.83 C-240 469 -240 469 -238 469 C-238 468.34 -238 467.68 -238 467 C-236.57 465.6 -236.57 465.6 -234.57 463.95 C-229.72 459.82 -225.28 455.35 -220.81 450.81 C-216.36 446.29 -212.01 441.91 -207 438 C-205.84 436.76 -204.71 435.49 -203.62 434.19 C-201.43 431.61 -199.21 429.2 -196.75 426.88 C-174.77 405.14 -159.45 374.95 -158.69 343.88 C-159.06 322.49 -165.39 302.93 -175 284 C-175.31 283.38 -175.62 282.76 -175.95 282.12 C-181.67 270.82 -188.41 260.29 -195.52 249.82 C-219.86 213.69 -232.93 175.45 -224.97 131.7 C-218.34 98.49 -202.57 71.03 -179 47 C-178.48 46.44 -177.97 45.88 -177.44 45.31 C-176 44 -176 44 -174 44 C-174 43.34 -174 42.68 -174 42 C-171.64 40.03 -169.28 38.19 -166.81 36.38 C-166.08 35.84 -165.35 35.3 -164.6 34.74 C-153.38 26.53 -141.54 19.95 -129 14 C-127.92 13.48 -126.83 12.95 -125.71 12.41 C-88.21 -4.77 -40.3 -8.67 0 0 Z M-120 26 C-120.75 26.32 -121.5 26.65 -122.27 26.98 C-139.57 34.54 -154.12 44.24 -168 57 C-168.53 57.48 -169.05 57.96 -169.6 58.46 C-195.89 82.78 -211.22 117.8 -212.98 153.5 C-213.9 188.73 -200.34 218.38 -180.38 246.62 C-156.76 280.12 -140.04 320.02 -145.5 361.64 C-146.16 365.17 -146.99 368.56 -148 372 C-148.31 373.15 -148.61 374.3 -148.93 375.49 C-156.01 399.48 -171.43 421.95 -189.35 439.27 C-191.23 440.84 -191.23 440.84 -191 443 C-192.32 443.66 -193.64 444.32 -195 445 C-195 445.66 -195 446.32 -195 447 C-195.66 447 -196.32 447 -197 447 C-197 447.66 -197 448.32 -197 449 C-197.66 449 -198.32 449 -199 449 C-199 449.66 -199 450.32 -199 451 C-200.32 451.66 -201.64 452.32 -203 453 C-203 453.66 -203 454.32 -203 455 C-203.66 455 -204.32 455 -205 455 C-206.2 456.13 -207.39 457.28 -208.53 458.47 C-210.1 460.1 -211.71 461.68 -213.33 463.26 C-214.49 464.4 -215.65 465.55 -216.81 466.69 C-217.41 467.27 -218.01 467.85 -218.62 468.45 C-220.12 469.93 -221.56 471.46 -223 473 C-223 473.66 -223 474.32 -223 475 C-221.69 475.25 -221.69 475.25 -220.35 475.5 C-168.37 485.45 -120.44 504.47 -72.83 527.18 C-69.5 528.76 -66.17 530.33 -62.84 531.89 C-54.96 535.59 -47.17 539.39 -39.5 543.5 C-18.26 554.81 3.35 565.5 25.75 574.31 C26.73 574.7 26.73 574.7 27.73 575.1 C37.66 579 47.73 582.12 58 585 C48.24 547.3 30.1 510.83 4.65 481.27 C-3.83 471.25 -7.92 462.57 -7.22 449.28 C-6.52 441.99 -4.64 434.81 -2.95 427.69 C-2.25 424.75 -1.58 421.79 -0.91 418.84 C-0.47 416.93 -0.02 415.02 0.42 413.11 C0.62 412.24 0.82 411.38 1.02 410.48 C3.06 401.97 5.45 393.12 12 387 C26.31 378.44 41.05 380.7 56.94 382.94 C83.85 387.58 83.85 387.58 109.19 380.43 C113.08 377.36 115.04 373.76 116 369 C116.17 363.58 115.84 358.4 115.31 353 C114.71 344.7 115.92 339.39 121.19 332.94 C123.41 330.16 124.43 328.4 124.5 324.81 C124.19 321.13 124.19 321.13 122.94 318.44 C121.5 314.71 121.77 312.82 123 309 C125.19 306.69 127.49 304.7 129.97 302.7 C132.09 301.16 132.09 301.16 133 299 C133.32 294.38 132.48 290.96 130.94 286.62 C128.85 280.13 128.32 275.98 131.03 269.57 C133.86 265.88 137.36 264.42 141.5 262.44 C148.28 259.44 148.28 259.44 153 254 C154.3 249.81 154.11 246.97 152.19 243.01 C150.18 239.61 147.79 236.5 145.44 233.33 C131.62 214.6 117.94 194.29 120 170 C120.44 167.16 120.97 164.33 121.5 161.5 C124.01 148 124.51 133.37 121 120 C120.6 118.33 120.6 118.33 120.19 116.62 C114.34 98.78 106.24 82.32 94 68 C93.19 67.04 92.37 66.07 91.54 65.08 C85.9 58.63 79.8 53.19 73 48 C71.72 47 71.72 47 70.42 45.98 C51.79 31.84 29.71 22.27 7 17 C6.23 16.82 5.46 16.63 4.66 16.44 C-9.11 13.21 -22.89 11.76 -37 11 C-37.73 10.96 -38.45 10.92 -39.2 10.87 C-66.19 9.54 -95.27 15.2 -120 26 Z " fill="#43B5FD" transform="translate(541,197)"/>
<path d="M0 0 C1.1 0.73 1.1 0.73 2.23 1.48 C3.86 2.59 5.44 3.79 7 5 C7 5.66 7 6.32 7 7 C7.84 7.35 7.84 7.35 8.71 7.7 C21.01 14.66 30.87 33.08 35 46 C41 68.12 37.79 88.21 26.75 108.06 C21.16 117.32 14.45 125.27 6 132 C5.08 132.77 4.16 133.54 3.21 134.33 C-24.49 157.01 -60.24 164.1 -95.29 161.76 C-126.71 158.54 -153.96 145.32 -176 123 C-176.8 122.21 -177.61 121.41 -178.43 120.6 C-192.53 105.84 -199.45 85.56 -199.36 65.45 C-198.89 46.7 -191.74 28.89 -179 15 C-178.56 14.52 -178.12 14.03 -177.67 13.53 C-132.55 -35.8 -53.04 -36.12 0 0 Z M-159 16 C-159.75 16.53 -160.5 17.06 -161.28 17.61 C-162.13 18.3 -162.13 18.3 -163 19 C-163 19.66 -163 20.32 -163 21 C-163.99 21.33 -164.98 21.66 -166 22 C-179.71 37.38 -185.17 54.42 -184.17 74.8 C-182.7 93.96 -169.99 109.79 -156 122 C-130.66 142.26 -98.99 149.5 -67 147 C-52.27 145.24 -38.28 141.63 -25 135 C-24.39 134.7 -23.78 134.41 -23.16 134.1 C-1.66 123.39 14.05 105.66 22 83 C25.73 65.95 22.33 48.65 13 34 C-4.52 9.51 -30.49 -3.09 -59.46 -8.58 C-94.04 -14.31 -131.97 -6.9 -159 16 Z " fill="#43B5FD" transform="translate(573,267)"/>
<path d="M0 0 C4.46 3.2 6.57 7.53 8.27 12.63 C8.9 19.93 7.45 25.68 2.8 31.46 C-1.65 35.79 -6.59 37.33 -12.73 37.63 C-14.38 37.25 -14.38 37.25 -16.07 36.87 C-19.75 36.26 -19.75 36.26 -22.4 38.4 C-23.23 39.27 -24.05 40.13 -24.9 41.02 C-25.81 41.96 -26.72 42.9 -27.66 43.86 C-28.6 44.87 -29.54 45.88 -30.48 46.88 C-31.43 47.88 -32.38 48.87 -33.34 49.86 C-35.09 51.68 -36.84 53.51 -38.57 55.35 C-39.28 56.1 -39.99 56.86 -40.73 57.63 C-41.28 58.23 -41.83 58.83 -42.39 59.44 C-43.73 60.63 -43.73 60.63 -45.73 60.63 C-46.72 62.61 -46.72 62.61 -47.73 64.63 C-48.39 64.63 -49.05 64.63 -49.73 64.63 C-50.22 66.12 -50.22 66.12 -50.73 67.63 C-52.66 69.82 -52.66 69.82 -54.73 71.63 C-55.39 71.63 -56.05 71.63 -56.73 71.63 C-57.73 74.64 -57.85 76.61 -57.84 79.75 C-57.84 80.79 -57.84 81.83 -57.84 82.9 C-57.83 84.02 -57.83 85.14 -57.82 86.3 C-57.82 87.45 -57.82 88.6 -57.82 89.79 C-57.81 93.46 -57.8 97.14 -57.79 100.82 C-57.78 103.31 -57.78 105.8 -57.78 108.29 C-57.76 114.41 -57.75 120.52 -57.73 126.63 C-56.38 125.37 -55.05 124.1 -53.73 122.82 C-52.98 122.11 -52.24 121.4 -51.48 120.67 C-49.41 118.71 -49.41 118.71 -49.73 115.7 C-50.06 114.68 -50.39 113.67 -50.73 112.63 C-51.31 106.58 -50.91 100.93 -47.73 95.63 C-44.11 91.69 -39.84 88.03 -34.39 87.33 C-28.11 87.3 -22.91 87.72 -18.04 92.18 C-13.04 97.62 -11.2 102.96 -11.42 110.33 C-12.23 116.42 -14.99 120.36 -19.79 124.07 C-24.63 127.48 -28.88 128 -34.73 127.63 C-35.45 127.33 -36.18 127.04 -36.92 126.73 C-40.24 126.62 -40.59 127.03 -42.97 129.17 C-44.23 130.41 -45.46 131.67 -46.69 132.95 C-47.37 133.63 -48.05 134.31 -48.75 135.01 C-51 137.28 -53.23 139.56 -55.46 141.85 C-57.01 143.42 -58.57 144.99 -60.13 146.56 C-64.23 150.7 -68.32 154.85 -72.4 159.01 C-78.94 165.67 -85.51 172.31 -92.08 178.94 C-94.38 181.27 -96.67 183.6 -98.96 185.93 C-100.35 187.35 -101.75 188.77 -103.15 190.19 C-104.11 191.18 -104.11 191.18 -105.09 192.18 C-106.6 193.7 -108.16 195.17 -109.73 196.63 C-110.39 196.63 -111.05 196.63 -111.73 196.63 C-111.98 197.23 -112.24 197.82 -112.5 198.43 C-113.84 200.84 -115.16 202.08 -117.29 203.82 C-120.56 206.54 -123.41 209.44 -126.29 212.57 C-130.2 216.54 -130.2 216.54 -134.54 217.32 C-137.31 216.72 -139.27 216 -141.73 214.63 C-142.39 214.96 -143.05 215.29 -143.73 215.63 C-143.3 210.76 -141.28 208.79 -137.79 205.51 C-135.07 202.93 -132.81 200.76 -130.73 197.63 C-130.07 197.63 -129.41 197.63 -128.73 197.63 C-128.73 196.97 -128.73 196.31 -128.73 195.63 C-127.37 194.3 -127.37 194.3 -125.54 192.82 C-123.47 191.14 -121.58 189.47 -119.74 187.52 C-117.35 185.1 -114.76 183.07 -112.04 181.01 C-83.56 159.74 -83.56 159.74 -69.24 128.65 C-67.5 113.06 -68.4 96.99 -70.07 81.42 C-70.19 80.2 -70.32 78.98 -70.44 77.73 C-70.57 76.67 -70.69 75.61 -70.82 74.51 C-70.65 69.2 -67.42 66.08 -63.81 62.49 C-63.03 61.7 -62.24 60.92 -61.44 60.12 C-60.6 59.29 -59.77 58.47 -58.9 57.61 C-58.04 56.75 -57.18 55.9 -56.29 55.01 C-53.55 52.28 -50.79 49.55 -48.04 46.82 C-46.17 44.96 -44.31 43.11 -42.44 41.25 C-37.88 36.71 -33.3 32.17 -28.73 27.63 C-29.05 26.87 -29.37 26.1 -29.7 25.31 C-31.75 19.95 -31.88 13.58 -29.78 8.21 C-22.79 -3.51 -11.84 -6.37 0 0 Z M-18.23 10.07 C-20.46 13.88 -20.63 17.33 -19.73 21.63 C-17.18 24.7 -15.64 25.48 -11.73 26.13 C-7.82 25.48 -6.27 24.7 -3.73 21.63 C-2.82 17.33 -3 13.88 -5.23 10.07 C-9.63 7.54 -13.82 7.54 -18.23 10.07 Z M-37.73 100.63 C-40.03 103.86 -40.2 106.75 -39.73 110.63 C-37.75 114.05 -36.54 115.36 -32.79 116.63 C-29.1 116.63 -27.58 115.93 -24.73 113.63 C-22.64 110.98 -22.73 109.57 -22.79 106.13 C-23.46 102.54 -23.46 102.54 -25.98 100.2 C-30.25 97.77 -33.65 97.82 -37.73 100.63 Z " fill="#43B5FC" transform="translate(775.7265625,455.3671875)"/>
<path d="M0 0 C5.92 3.33 10.25 8.8 12.3 15.28 C13.56 22.6 11.44 28.61 7.35 34.56 C5.65 36.19 4.09 37.15 2.04 38.3 C0.92 38.93 -0.2 39.55 -1.36 40.2 C-3.48 49.37 -4.84 58.57 -5.61 67.95 C-5.66 68.65 -5.72 69.35 -5.78 70.08 C-7.18 89.39 -3.45 103.82 9.34 118.61 C23.68 134.5 39.71 148.99 56.05 162.79 C56.75 163.38 57.45 163.97 58.17 164.59 C59.46 165.69 60.77 166.77 62.08 167.85 C65.76 170.97 67.66 173.29 68.64 178.2 C68.81 180.89 68.81 180.89 68.69 183.66 C68.66 184.71 68.62 185.75 68.59 186.83 C68.55 187.95 68.5 189.07 68.46 190.22 C68.42 192.63 68.38 195.04 68.35 197.45 C68.29 201.22 68.21 204.98 68.04 208.75 C67.05 224.69 67.05 224.69 73.53 238.68 C77.1 242.44 80.94 245.77 85.11 248.86 C85.61 249.3 86.12 249.74 86.64 250.2 C86.64 250.86 86.64 251.52 86.64 252.2 C87.3 252.2 87.96 252.2 88.64 252.2 C89.98 253.55 89.98 253.55 91.46 255.39 C94.04 258.5 96.74 261.37 99.64 264.2 C101.31 265.87 102.98 267.53 104.64 269.2 C105.55 270.04 106.46 270.89 107.39 271.76 C110.64 275.28 110.64 275.28 110.64 278.2 C109.52 280.89 109.52 280.89 107.64 283.2 C105.25 284.02 105.25 284.02 102.64 284.2 C100.79 283.15 100.79 283.15 99.02 281.44 C98.33 280.79 97.65 280.14 96.94 279.47 C96.18 278.72 95.43 277.97 94.64 277.2 C93.78 276.37 92.92 275.54 92.04 274.68 C89.7 272.41 87.38 270.12 85.07 267.81 C83.62 266.37 82.17 264.93 80.72 263.5 C79.35 262.13 79.35 262.13 77.96 260.74 C76.71 259.51 76.71 259.51 75.45 258.24 C73.64 256.2 73.64 256.2 73.64 254.2 C73.06 253.94 72.48 253.68 71.88 253.42 C69.46 252.1 67.83 250.65 65.89 248.7 C65.28 248.09 64.67 247.48 64.04 246.86 C62.64 245.2 62.64 245.2 62.64 243.2 C61.98 243.2 61.32 243.2 60.64 243.2 C55.04 237.26 55.46 231.18 55.29 223.44 C55.27 222.49 55.25 221.55 55.22 220.57 C55.18 218.57 55.13 216.57 55.09 214.57 C55.02 211.54 54.94 208.51 54.86 205.47 C54.82 203.52 54.77 201.57 54.73 199.62 C54.71 198.73 54.68 197.83 54.66 196.91 C54.64 196.05 54.62 195.18 54.61 194.29 C54.59 193.55 54.57 192.81 54.56 192.04 C54.64 189.2 54.64 189.2 55.08 186.91 C55.99 181.96 55.99 181.96 54.67 177.24 C53.11 175.33 51.46 173.67 49.66 171.99 C49.01 171.35 48.36 170.7 47.69 170.03 C45.55 167.91 43.37 165.83 41.19 163.74 C39.69 162.27 38.2 160.79 36.7 159.31 C32.77 155.43 28.8 151.59 24.83 147.75 C20.01 143.08 15.22 138.37 10.43 133.67 C6.71 130.01 2.98 126.36 -0.77 122.72 C-2.13 121.4 -3.49 120.08 -4.85 118.76 C-5.47 118.17 -6.08 117.57 -6.72 116.96 C-14.01 109.84 -14.01 109.84 -14.75 104.17 C-14.77 103.04 -14.78 101.92 -14.79 100.76 C-14.81 99.48 -14.83 98.19 -14.85 96.87 C-14.85 95.49 -14.86 94.1 -14.87 92.71 C-14.88 91.28 -14.9 89.86 -14.92 88.43 C-14.97 84.68 -15 80.93 -15.03 77.19 C-15.05 73.36 -15.1 69.53 -15.15 65.71 C-15.23 58.2 -15.3 50.7 -15.36 43.2 C-16.02 42.87 -16.68 42.54 -17.36 42.2 C-17.03 41.54 -16.7 40.88 -16.36 40.2 C-17.24 39.66 -18.13 39.13 -19.04 38.57 C-24.09 35.2 -27.41 31 -29.36 25.2 C-30.33 18.41 -29.59 12.97 -25.92 7.14 C-19.61 -0.7 -9.53 -3.24 0 0 Z M-15.92 12.64 C-18.07 16.46 -18.12 19.91 -17.36 24.2 C-15.23 27.6 -13.79 28.08 -9.92 29.14 C-5.91 29.21 -4.41 28.73 -1.36 26.2 C0.75 23.53 0.64 22.16 0.52 18.7 C-0.47 14.76 -0.92 13.35 -4.36 11.2 C-8.64 10.44 -12.09 10.49 -15.92 12.64 Z " fill="#43B5FD" transform="translate(265.35546875,275.80078125)"/>
<path d="M0 0 C5.03 2.95 8.46 6.49 10.84 11.86 C12.41 18.53 12.04 23.71 9.11 29.87 C7.29 32.48 5.88 32.9 2.98 34.09 C0.43 35.72 -1.11 36.92 -1.91 39.91 C-2.55 44.89 -2.42 49.88 -2.25 54.88 C-2.16 57.6 -2.13 60.31 -2.11 63.03 C-2.08 64.77 -2.05 66.5 -2.02 68.23 C-2 69.04 -1.99 69.85 -1.98 70.68 C-1.95 71.45 -1.92 72.21 -1.89 72.99 C-1.86 73.99 -1.86 73.99 -1.83 75 C-0.87 79.66 2.21 82.91 5.51 86.16 C6.29 86.93 7.08 87.71 7.88 88.5 C8.72 89.33 9.55 90.15 10.42 90.99 C11.71 92.27 11.71 92.27 13.03 93.58 C15.77 96.3 18.53 99.02 21.28 101.73 C24.92 105.31 28.54 108.9 32.17 112.49 C33.01 113.32 33.86 114.15 34.72 115 C35.5 115.76 36.27 116.53 37.06 117.32 C37.75 117.99 38.43 118.66 39.13 119.36 C40.59 121.04 40.59 121.04 40.59 123.04 C41.18 123.3 41.76 123.56 42.36 123.82 C44.8 125.16 46.42 126.63 48.38 128.6 C49.07 129.3 49.77 129.99 50.49 130.71 C51.2 131.44 51.92 132.17 52.66 132.92 C53.74 134 53.74 134 54.84 135.1 C61.59 141.91 61.59 141.91 63.59 145.04 C63.53 148.88 63.36 151.14 60.84 154.11 C58.59 155.04 58.59 155.04 56.24 154.36 C53.27 152.88 51.42 151.24 49.08 148.9 C48.22 148.05 47.36 147.19 46.47 146.31 C45.56 145.39 44.64 144.46 43.7 143.51 C42.74 142.55 41.79 141.6 40.83 140.64 C38.83 138.64 36.84 136.64 34.84 134.63 C32.29 132.05 29.72 129.49 27.15 126.92 C25.18 124.95 23.21 122.98 21.24 121 C19.84 119.59 18.43 118.18 17.02 116.77 C16.18 115.92 15.33 115.07 14.46 114.19 C13.71 113.43 12.96 112.68 12.19 111.9 C10.59 110.04 10.59 110.04 10.59 108.04 C9.93 108.04 9.27 108.04 8.59 108.04 C8.59 107.38 8.59 106.72 8.59 106.04 C8.06 105.84 7.52 105.63 6.97 105.42 C3.67 103.51 1 100.99 -1.41 98.04 C-1.41 97.38 -1.41 96.72 -1.41 96.04 C-2.89 95.55 -2.89 95.55 -4.41 95.04 C-4.41 94.38 -4.41 93.72 -4.41 93.04 C-5.89 92.55 -5.89 92.55 -7.41 92.04 C-7.41 91.38 -7.41 90.72 -7.41 90.04 C-8.89 89.55 -8.89 89.55 -10.41 89.04 C-13.11 86.17 -13.77 84.26 -13.71 80.35 C-13.71 79.43 -13.7 78.5 -13.69 77.55 C-13.67 76.56 -13.66 75.57 -13.64 74.55 C-13.63 72.44 -13.63 70.33 -13.63 68.23 C-13.62 64.91 -13.59 61.6 -13.54 58.28 C-13.5 55.08 -13.5 51.88 -13.51 48.67 C-13.48 47.68 -13.45 46.69 -13.42 45.67 C-13.45 42.91 -13.55 40.68 -14.41 38.04 C-16.31 36.22 -18.09 35.14 -20.46 33.99 C-24.52 32.01 -26.09 28.84 -27.72 24.79 C-28.86 18.56 -28.47 13.4 -25.34 7.79 C-19.37 -0.7 -9.93 -3.95 0 0 Z M-15.41 13.04 C-17.52 15.74 -17.4 17.12 -17.28 20.61 C-16.68 23.98 -16.68 23.98 -14.84 25.98 C-11.31 27.52 -8.2 27.72 -4.41 27.04 C-1.74 25.71 -1.74 25.71 -0.41 23.04 C0.07 19.56 0.2 16.25 -1.41 13.04 C-2.07 13.04 -2.73 13.04 -3.41 13.04 C-3.41 12.38 -3.41 11.72 -3.41 11.04 C-8.51 9.94 -11.28 9.62 -15.41 13.04 Z " fill="#44B6FD" transform="translate(293.40625,446.95703125)"/>
<path d="M0 0 C5.02 2.99 8.45 6.44 10.89 11.8 C12.64 19.38 11.83 24.67 8.52 31.7 C6.55 34.17 5.33 34.77 2.57 36.15 C-0.44 37.97 -0.44 37.97 -2.05 40.97 C-2.25 43.32 -2.2 45.55 -2.07 47.9 C-2.04 49.17 -2.04 49.17 -2.02 50.46 C-1.96 53.16 -1.85 55.86 -1.73 58.55 C-1.65 61.25 -1.57 63.95 -1.51 66.65 C-1.46 68.32 -1.41 70 -1.33 71.67 C-1.15 77.1 -1.53 80.8 -5.06 85.17 C-7.26 87.39 -9.45 89.61 -11.67 91.8 C-12.43 92.58 -13.19 93.36 -13.97 94.17 C-14.71 94.91 -15.45 95.65 -16.22 96.41 C-16.89 97.09 -17.57 97.76 -18.26 98.46 C-20.69 100.31 -22.33 100.79 -25.36 101.05 C-28.36 100.05 -28.36 100.05 -29.61 98.3 C-30.62 95.26 -30.43 94.12 -29.36 91.05 C-27.22 88.45 -24.8 86.17 -22.36 83.87 C-21.06 82.63 -19.77 81.38 -18.48 80.14 C-17.91 79.59 -17.33 79.05 -16.74 78.49 C-13.93 75.58 -14.25 73.18 -14.29 69.27 C-14.3 68.1 -14.31 66.93 -14.32 65.72 C-14.34 63.26 -14.37 60.8 -14.39 58.35 C-14.44 51.82 -14.25 45.53 -13.36 39.05 C-14.65 38.78 -14.65 38.78 -15.98 38.49 C-20.97 36.37 -23.66 32.75 -26.51 28.23 C-28.72 22.57 -28.05 15.31 -26.29 9.62 C-19.86 1.1 -10.73 -4.31 0 0 Z M-14.36 13.05 C-16.75 15.45 -16.68 16.15 -16.73 19.43 C-16.64 22.55 -16.46 23.87 -14.86 26.62 C-11.3 28.66 -8.36 28.7 -4.36 28.05 C-1.8 27.24 -1.8 27.24 -0.36 25.05 C0.71 20.66 1.18 18.36 -0.54 14.18 C-2.42 11.98 -3.64 10.99 -6.36 10.05 C-9.97 10.05 -11.39 11.08 -14.36 13.05 Z " fill="#44B5FC" transform="translate(747.35546875,335.9453125)"/>
<path d="M0 0 C5.35 3.14 8.77 8.1 10.35 14.05 C10.8 17.42 11.11 20.28 10.02 23.56 C8.54 28.01 8.54 28.01 9.59 32.4 C11.15 34.2 12.79 35.75 14.58 37.32 C15.2 37.91 15.83 38.5 16.47 39.11 C18.45 41 20.47 42.85 22.5 44.69 C24.51 46.54 26.51 48.4 28.5 50.28 C29.74 51.45 30.99 52.6 32.25 53.73 C35.34 56.62 36.57 58.11 37.68 62.31 C37.69 65.56 37.69 65.56 36.06 68.06 C33.69 69.56 33.69 69.56 31.45 69.57 C27.3 68.05 25.07 65.14 22.16 61.9 C20.88 60.54 19.6 59.17 18.32 57.81 C16.31 55.66 14.32 53.51 12.36 51.32 C4.88 42.25 4.88 42.25 -5.42 37.77 C-9.36 37.79 -9.36 37.79 -12.99 38.43 C-17.3 38.6 -19.01 37.22 -22.31 34.56 C-24.18 32.75 -24.18 32.75 -25.62 31 C-26.12 30.42 -26.61 29.84 -27.11 29.25 C-30.51 24.48 -29.93 18.12 -29.31 12.56 C-27.15 6.86 -23.18 3.06 -18.31 -0.44 C-12.46 -2.39 -5.72 -2.43 0 0 Z M-15.62 10.5 C-18.27 13.73 -18.53 17.46 -18.31 21.56 C-17.09 24.86 -16.36 25.53 -13.31 27.56 C-8.99 28.12 -7.02 28.04 -3.38 25.56 C-0.52 21.41 -0.6 19.53 -1.31 14.56 C-3.18 12.13 -4.59 10.92 -7.31 9.56 C-10.45 9.29 -12.69 9.31 -15.62 10.5 Z " fill="#44B6FC" transform="translate(220.3125,395.4375)"/>
<path d="M0 0 C3.31 1.03 4.02 2.04 5.75 5.12 C7.32 9.16 7.23 12.71 7 17 C6.67 17 6.34 17 6 17 C6 14.69 6 12.38 6 10 C5.34 10 4.68 10 4 10 C1.12 3.38 1.12 3.38 0 0 Z " fill="#46B2F1" transform="translate(777,459)"/>
<path d="M0 0 C7.85 -0.65 12.78 0.01 19 5 C16 6 16 6 12.81 4.56 C11.88 4.05 10.96 3.53 10 3 C10 2.34 10 1.68 10 1 C6.7 1 3.4 1 0 1 C0 0.67 0 0.34 0 0 Z " fill="#47B0F1" transform="translate(734,335)"/>
<path d="M0 0 C0.33 0.99 0.66 1.98 1 3 C-0.25 5.19 -0.25 5.19 -2 7 C-2.99 7 -3.98 7 -5 7 C-5 6.34 -5 5.68 -5 5 C-4.34 5 -3.68 5 -3 5 C-2.54 4.04 -2.54 4.04 -2.06 3.06 C-1 1 -1 1 0 0 Z " fill="#43AAEC" transform="translate(293,674)"/>
<path d="M0 0 C2.64 0 5.28 0 8 0 C8 0.33 8 0.66 8 1 C5.36 1 2.72 1 0 1 C0 0.67 0 0.34 0 0 Z " fill="#48B4F9" transform="translate(493,240)"/>
<path d="M0 0 C2.31 0 4.62 0 7 0 C7 0.33 7 0.66 7 1 C4.69 1 2.38 1 0 1 C0 0.67 0 0.34 0 0 Z " fill="#47AAED" transform="translate(496,430)"/>
<path d="M0 0 C2.31 0 4.62 0 7 0 C7 0.33 7 0.66 7 1 C4.69 1 2.38 1 0 1 C0 0.67 0 0.34 0 0 Z " fill="#49B4F9" transform="translate(481,240)"/>
<path d="M0 0 C1.65 0 3.3 0 5 0 C5 0.33 5 0.66 5 1 C3.35 1 1.7 1 0 1 C0 0.67 0 0.34 0 0 Z " fill="#4AB5FB" transform="translate(632,598)"/>
<path d="M0 0 C1.32 0.33 2.64 0.66 4 1 C3.01 1.5 3.01 1.5 2 2 C1.34 1.34 0.68 0.68 0 0 Z " fill="#47B2F9" transform="translate(523,262)"/>
<path d="M0 0 C0.66 0.33 1.32 0.66 2 1 C1.01 1 0.02 1 -1 1 C-0.67 0.67 -0.34 0.34 0 0 Z " fill="#469DDB" transform="translate(594,797)"/>
<path d="M0 0 C4 1 4 1 4 1 Z " fill="#4AB4FB" transform="translate(602,596)"/>
<path d="M0 0 C4 1 4 1 4 1 Z " fill="#47ACEE" transform="translate(489,430)"/>
<path d="M0 0 C4 1 4 1 4 1 Z " fill="#47ADEF" transform="translate(483,430)"/>
<path d="M0 0 C0.99 1.49 0.99 1.49 2 3 C1.34 3 0.68 3 0 3 C0 2.01 0 1.02 0 0 Z " fill="#48B3FB" transform="translate(650,291)"/>
<path d="M0 0 C4 1 4 1 4 1 Z " fill="#45AAEB" transform="translate(504,192)"/>
<path d="M0 0 C3 1 3 1 3 1 Z " fill="#449AD8" transform="translate(600,799)"/>
<path d="" fill="#49B0F7" transform="translate(0,0)"/>
<path d="" fill="#49B2F8" transform="translate(0,0)"/>
<path d="M0 0 C3 1 3 1 3 1 Z " fill="#46A7EC" transform="translate(347,694)"/>
<path d="M0 0 C3 1 3 1 3 1 Z " fill="#4BB4FA" transform="translate(741,569)"/>
<path d="" fill="#47A3E4" transform="translate(0,0)"/>
<path d="M0 0 C3 1 3 1 3 1 Z " fill="#49AEF0" transform="translate(213,392)"/>
<path d="M0 0 C3 1 3 1 3 1 Z " fill="#48B0F0" transform="translate(209,392)"/>
<path d="" fill="#4BB7FE" transform="translate(0,0)"/>
<path d="M0 0 C0.66 0.66 1.32 1.32 2 2 C1.34 2 0.68 2 0 2 C0 1.34 0 0.68 0 0 Z " fill="#48B3FA" transform="translate(733,350)"/>
<path d="M0 0 C0.66 0 1.32 0 2 0 C1.67 0.66 1.34 1.32 1 2 C0.67 1.34 0.34 0.68 0 0 Z " fill="#45A3E0" transform="translate(758,346)"/>
<path d="" fill="#4AB1F9" transform="translate(0,0)"/>
<path d="M0 0 C3 1 3 1 3 1 Z " fill="#47B3F8" transform="translate(453,263)"/>
<path d="M0 0 C3 1 3 1 3 1 Z " fill="#49B5FB" transform="translate(441,248)"/>
<path d="M0 0 C3 1 3 1 3 1 Z " fill="#49B7FB" transform="translate(489,240)"/>
<path d="M0 0 C0.99 0.5 0.99 0.5 2 1 C1.01 1.5 1.01 1.5 0 2 C0 1.34 0 0.68 0 0 Z " fill="#48B2FB" transform="translate(568,222)"/>
<path d="M0 0 C3 1 3 1 3 1 Z " fill="#46AEEF" transform="translate(489,192)"/>
<path d="M0 0 C3 1 3 1 3 1 Z " fill="#48ADED" transform="translate(481,192)"/>
<path d="M0 0 C2 1 2 1 2 1 Z " fill="#43A1E4" transform="translate(576,791)"/>
<path d="" fill="#46B0F7" transform="translate(0,0)"/>
<path d="" fill="#49B2F8" transform="translate(0,0)"/>
<path d="M0 0 C2 1 2 1 2 1 Z " fill="#47AAED" transform="translate(419,718)"/>
<path d="M0 0 C2 1 2 1 2 1 Z " fill="#47A9EB" transform="translate(379,703)"/>
<path d="M0 0 C2 1 2 1 2 1 Z " fill="#47A9ED" transform="translate(370,700)"/>
<path d="M0 0 C2 1 2 1 2 1 Z " fill="#48A8EB" transform="translate(337,691)"/>
<path d="M0 0 C2 1 2 1 2 1 Z " fill="#49B2F9" transform="translate(369,682)"/>
<path d="M0 0 C2 1 2 1 2 1 Z " fill="#46A8EA" transform="translate(633,671)"/>
<path d="" fill="#49ADF2" transform="translate(0,0)"/>
<path d="" fill="#48B5FC" transform="translate(0,0)"/>
<path d="" fill="#4BB4FC" transform="translate(0,0)"/>
<path d="M0 0 C2 1 2 1 2 1 Z " fill="#4CB6FB" transform="translate(626,598)"/>
<path d="" fill="#49B4FD" transform="translate(0,0)"/>
<path d="" fill="#4AB4FC" transform="translate(0,0)"/>
<path d="" fill="#4BB5FD" transform="translate(0,0)"/>
<path d="" fill="#4AB4FD" transform="translate(0,0)"/>
<path d="M0 0 C2 1 2 1 2 1 Z " fill="#4CB5FC" transform="translate(745,555)"/>
<path d="" fill="#4BB4FB" transform="translate(0,0)"/>
<path d="" fill="#4BB6FC" transform="translate(0,0)"/>
<path d="" fill="#4CB6FC" transform="translate(0,0)"/>
<path d="M0 0 C2 1 2 1 2 1 Z " fill="#47ACF0" transform="translate(769,493)"/>
<path d="" fill="#49B5FD" transform="translate(0,0)"/>
<path d="" fill="#48B6FD" transform="translate(0,0)"/>
<path d="" fill="#4AB2F9" transform="translate(0,0)"/>
<path d="" fill="#4AB5FD" transform="translate(0,0)"/>
<path d="" fill="#49B5FD" transform="translate(0,0)"/>
<path d="M0 0 C2 1 2 1 2 1 Z " fill="#4AAFF1" transform="translate(229,447)"/>
<path d="M0 0 C2 1 2 1 2 1 Z " fill="#4CB5FB" transform="translate(720,437)"/>
<path d="M0 0 C2 1 2 1 2 1 Z " fill="#49B2F8" transform="translate(213,407)"/>
<path d="M0 0 C2 1 2 1 2 1 Z " fill="#46B1F7" transform="translate(206,407)"/>
<path d="M0 0 C2 1 2 1 2 1 Z " fill="#48B3FA" transform="translate(211,406)"/>
<path d="" fill="#49B4FD" transform="translate(0,0)"/>
<path d="" fill="#48B2FA" transform="translate(0,0)"/>
<path d="" fill="#48B4FB" transform="translate(0,0)"/>
<path d="" fill="#4BB5FE" transform="translate(0,0)"/>
<path d="" fill="#48B2FA" transform="translate(0,0)"/>
<path d="" fill="#4AB4FC" transform="translate(0,0)"/>
<path d="" fill="#4AB3FA" transform="translate(0,0)"/>
<path d="" fill="#46A5E7" transform="translate(0,0)"/>
<path d="M0 0 C2 1 2 1 2 1 Z " fill="#48AAEE" transform="translate(277,287)"/>
<path d="M0 0 C2 1 2 1 2 1 Z " fill="#48B2FA" transform="translate(459,262)"/>
<path d="M0 0 C2 1 2 1 2 1 Z " fill="#4BB4FB" transform="translate(617,251)"/>
<path d="M0 0 C2 1 2 1 2 1 Z " fill="#48B3FA" transform="translate(540,248)"/>
<path d="M0 0 C2 1 2 1 2 1 Z " fill="#49B4F9" transform="translate(502,240)"/>
<path d="M0 0 C2 1 2 1 2 1 Z " fill="#47AAED" transform="translate(396,216)"/>
<path d="M0 0 C2 1 2 1 2 1 Z " fill="#49B2F9" transform="translate(544,215)"/>
<path d="M0 0 C2 1 2 1 2 1 Z " fill="#49B3FA" transform="translate(458,213)"/>
<path d="" fill="#3B424B" transform="translate(0,0)"/>
<path d="" fill="#449BD8" transform="translate(0,0)"/>
<path d="" fill="#449BD9" transform="translate(0,0)"/>
<path d="" fill="#4595CD" transform="translate(0,0)"/>
<path d="" fill="#479DDE" transform="translate(0,0)"/>
<path d="" fill="#46A4E4" transform="translate(0,0)"/>
<path d="" fill="#45A5E8" transform="translate(0,0)"/>
<path d="" fill="#48B0F7" transform="translate(0,0)"/>
<path d="" fill="#48B1F9" transform="translate(0,0)"/>
<path d="" fill="#46A4E4" transform="translate(0,0)"/>
<path d="" fill="#49B3F9" transform="translate(0,0)"/>
<path d="" fill="#4AB4F9" transform="translate(0,0)"/>
<path d="" fill="#48ADF4" transform="translate(0,0)"/>
<path d="" fill="#46A8EC" transform="translate(0,0)"/>
<path d="" fill="#48B2F9" transform="translate(0,0)"/>
<path d="" fill="#48B3F9" transform="translate(0,0)"/>
<path d="" fill="#44A6E8" transform="translate(0,0)"/>
<path d="" fill="#45A8EC" transform="translate(0,0)"/>
<path d="" fill="#47A6EA" transform="translate(0,0)"/>
<path d="" fill="#47B0F6" transform="translate(0,0)"/>
<path d="" fill="#46AAED" transform="translate(0,0)"/>
<path d="" fill="#4AB1F8" transform="translate(0,0)"/>
<path d="" fill="#44A8EB" transform="translate(0,0)"/>
<path d="" fill="#46A8EB" transform="translate(0,0)"/>
<path d="" fill="#45A8EC" transform="translate(0,0)"/>
<path d="" fill="#45ADF0" transform="translate(0,0)"/>
<path d="" fill="#46A4EB" transform="translate(0,0)"/>
<path d="" fill="#48ADF1" transform="translate(0,0)"/>
<path d="" fill="#49B1F8" transform="translate(0,0)"/>
<path d="" fill="#47A8ED" transform="translate(0,0)"/>
<path d="" fill="#46AAEF" transform="translate(0,0)"/>
<path d="" fill="#47A9ED" transform="translate(0,0)"/>
<path d="" fill="#4AA8EB" transform="translate(0,0)"/>
<path d="" fill="#49B3FA" transform="translate(0,0)"/>
<path d="" fill="#46A9EF" transform="translate(0,0)"/>
<path d="" fill="#44A9EF" transform="translate(0,0)"/>
<path d="" fill="#47B0F5" transform="translate(0,0)"/>
<path d="" fill="#4AB3FA" transform="translate(0,0)"/>
<path d="" fill="#45AAEE" transform="translate(0,0)"/>
<path d="" fill="#45AFF5" transform="translate(0,0)"/>
<path d="" fill="#47AEF4" transform="translate(0,0)"/>
<path d="" fill="#45AAEE" transform="translate(0,0)"/>
<path d="" fill="#49A9EC" transform="translate(0,0)"/>
<path d="" fill="#48B3FA" transform="translate(0,0)"/>
<path d="" fill="#43A5E9" transform="translate(0,0)"/>
<path d="" fill="#47A7EA" transform="translate(0,0)"/>
<path d="" fill="#49A5E7" transform="translate(0,0)"/>
<path d="" fill="#48A8EB" transform="translate(0,0)"/>
<path d="" fill="#47A3E4" transform="translate(0,0)"/>
<path d="" fill="#49A0E3" transform="translate(0,0)"/>
<path d="" fill="#479FDD" transform="translate(0,0)"/>
<path d="" fill="#4AB2F6" transform="translate(0,0)"/>
<path d="" fill="#49B4F9" transform="translate(0,0)"/>
<path d="" fill="#4BB4FA" transform="translate(0,0)"/>
<path d="" fill="#4AAEF4" transform="translate(0,0)"/>
<path d="" fill="#49B0F4" transform="translate(0,0)"/>
<path d="" fill="#49B2F8" transform="translate(0,0)"/>
<path d="" fill="#49B4FB" transform="translate(0,0)"/>
<path d="" fill="#49B2FA" transform="translate(0,0)"/>
<path d="" fill="#49B1F5" transform="translate(0,0)"/>
<path d="" fill="#4AADF0" transform="translate(0,0)"/>
<path d="" fill="#4CB6FC" transform="translate(0,0)"/>
<path d="" fill="#4AB3FA" transform="translate(0,0)"/>
<path d="" fill="#4CB5FC" transform="translate(0,0)"/>
<path d="" fill="#4EB5FE" transform="translate(0,0)"/>
<path d="" fill="#4AB1F4" transform="translate(0,0)"/>
<path d="" fill="#46B1F5" transform="translate(0,0)"/>
<path d="" fill="#45AFF6" transform="translate(0,0)"/>
<path d="" fill="#47B1F8" transform="translate(0,0)"/>
<path d="" fill="#48B0F8" transform="translate(0,0)"/>
<path d="" fill="#4BB7FE" transform="translate(0,0)"/>
<path d="" fill="#4CB5FC" transform="translate(0,0)"/>
<path d="" fill="#4BB2F9" transform="translate(0,0)"/>
<path d="" fill="#49AEF2" transform="translate(0,0)"/>
<path d="" fill="#4AB2F6" transform="translate(0,0)"/>
<path d="" fill="#4BB5FD" transform="translate(0,0)"/>
<path d="" fill="#4CB6FE" transform="translate(0,0)"/>
<path d="" fill="#4AA5E4" transform="translate(0,0)"/>
<path d="" fill="#49B2F9" transform="translate(0,0)"/>
<path d="" fill="#4AB4FB" transform="translate(0,0)"/>
<path d="" fill="#4AB2FA" transform="translate(0,0)"/>
<path d="" fill="#49B5FB" transform="translate(0,0)"/>
<path d="" fill="#4AB4FB" transform="translate(0,0)"/>
<path d="" fill="#4AB3FC" transform="translate(0,0)"/>
<path d="" fill="#4CB6FE" transform="translate(0,0)"/>
<path d="" fill="#48AFF4" transform="translate(0,0)"/>
<path d="" fill="#49B1F9" transform="translate(0,0)"/>
<path d="" fill="#4BB7FC" transform="translate(0,0)"/>
<path d="" fill="#4CB4F7" transform="translate(0,0)"/>
<path d="" fill="#48B1F9" transform="translate(0,0)"/>
<path d="" fill="#4AB4FE" transform="translate(0,0)"/>
<path d="" fill="#4AB6FE" transform="translate(0,0)"/>
<path d="" fill="#46B1F8" transform="translate(0,0)"/>
<path d="" fill="#4AB7FE" transform="translate(0,0)"/>
<path d="" fill="#4AB4FD" transform="translate(0,0)"/>
<path d="" fill="#4AB6FE" transform="translate(0,0)"/>
<path d="" fill="#47AFF4" transform="translate(0,0)"/>
<path d="" fill="#48B1FB" transform="translate(0,0)"/>
<path d="" fill="#48AFF3" transform="translate(0,0)"/>
<path d="" fill="#48AFF3" transform="translate(0,0)"/>
<path d="" fill="#4AB6FE" transform="translate(0,0)"/>
<path d="" fill="#4FB1F6" transform="translate(0,0)"/>
<path d="" fill="#4AB3FC" transform="translate(0,0)"/>
<path d="" fill="#4AB6FE" transform="translate(0,0)"/>
<path d="" fill="#4BB5FD" transform="translate(0,0)"/>
<path d="" fill="#4AB5FD" transform="translate(0,0)"/>
<path d="" fill="#47B0F8" transform="translate(0,0)"/>
<path d="" fill="#4AB7FE" transform="translate(0,0)"/>
<path d="" fill="#4DB1F7" transform="translate(0,0)"/>
<path d="" fill="#4AB8FD" transform="translate(0,0)"/>
<path d="" fill="#47B6FD" transform="translate(0,0)"/>
<path d="" fill="#4BB3FA" transform="translate(0,0)"/>
<path d="" fill="#48B6FC" transform="translate(0,0)"/>
<path d="" fill="#4DB6FD" transform="translate(0,0)"/>
<path d="" fill="#4BB5FE" transform="translate(0,0)"/>
<path d="" fill="#4CB1F6" transform="translate(0,0)"/>
<path d="" fill="#4AB2FE" transform="translate(0,0)"/>
<path d="" fill="#4AB5FB" transform="translate(0,0)"/>
<path d="" fill="#47B5FD" transform="translate(0,0)"/>
<path d="" fill="#48B3F9" transform="translate(0,0)"/>
<path d="" fill="#4BB9FE" transform="translate(0,0)"/>
<path d="" fill="#49B2F7" transform="translate(0,0)"/>
<path d="" fill="#48B0F7" transform="translate(0,0)"/>
<path d="" fill="#4CB5FB" transform="translate(0,0)"/>
<path d="" fill="#49B5FC" transform="translate(0,0)"/>
<path d="" fill="#4AB4FB" transform="translate(0,0)"/>
<path d="" fill="#4CB7FE" transform="translate(0,0)"/>
<path d="" fill="#48B6FE" transform="translate(0,0)"/>
<path d="" fill="#4AB5FE" transform="translate(0,0)"/>
<path d="" fill="#4AB7FE" transform="translate(0,0)"/>
<path d="" fill="#49B5FD" transform="translate(0,0)"/>
<path d="" fill="#4BB4FC" transform="translate(0,0)"/>
<path d="" fill="#4AAEF4" transform="translate(0,0)"/>
<path d="" fill="#4BB5FD" transform="translate(0,0)"/>
<path d="" fill="#4AADEB" transform="translate(0,0)"/>
<path d="" fill="#47B3FA" transform="translate(0,0)"/>
<path d="" fill="#4AAEF3" transform="translate(0,0)"/>
<path d="" fill="#46B6FC" transform="translate(0,0)"/>
<path d="" fill="#4BB0F6" transform="translate(0,0)"/>
<path d="" fill="#4AB4FC" transform="translate(0,0)"/>
<path d="" fill="#4AB3FD" transform="translate(0,0)"/>
<path d="" fill="#4AABF0" transform="translate(0,0)"/>
<path d="" fill="#49ABEC" transform="translate(0,0)"/>
<path d="" fill="#49B6FE" transform="translate(0,0)"/>
<path d="" fill="#47B2F8" transform="translate(0,0)"/>
<path d="" fill="#47A2E1" transform="translate(0,0)"/>
<path d="" fill="#49ADEF" transform="translate(0,0)"/>
<path d="" fill="#48ADF0" transform="translate(0,0)"/>
<path d="" fill="#48ACF1" transform="translate(0,0)"/>
<path d="" fill="#47B1FA" transform="translate(0,0)"/>
<path d="" fill="#4BB8FE" transform="translate(0,0)"/>
<path d="" fill="#44A0DE" transform="translate(0,0)"/>
<path d="" fill="#4AB3F8" transform="translate(0,0)"/>
<path d="" fill="#45ABEF" transform="translate(0,0)"/>
<path d="" fill="#4BB4FE" transform="translate(0,0)"/>
<path d="" fill="#4BB5FD" transform="translate(0,0)"/>
<path d="" fill="#47ADF2" transform="translate(0,0)"/>
<path d="" fill="#48AEF4" transform="translate(0,0)"/>
<path d="" fill="#48B5FC" transform="translate(0,0)"/>
<path d="" fill="#4B9FDB" transform="translate(0,0)"/>
<path d="" fill="#49B3FC" transform="translate(0,0)"/>
<path d="" fill="#4BB3FB" transform="translate(0,0)"/>
<path d="" fill="#4BB5F9" transform="translate(0,0)"/>
<path d="" fill="#47B0F6" transform="translate(0,0)"/>
<path d="" fill="#49B3F7" transform="translate(0,0)"/>
<path d="" fill="#48B2F7" transform="translate(0,0)"/>
<path d="" fill="#45B1F5" transform="translate(0,0)"/>
<path d="" fill="#4AB3F7" transform="translate(0,0)"/>
<path d="" fill="#48B2F9" transform="translate(0,0)"/>
<path d="" fill="#49B2FA" transform="translate(0,0)"/>
<path d="" fill="#4AB3FC" transform="translate(0,0)"/>
<path d="" fill="#48B4F8" transform="translate(0,0)"/>
<path d="" fill="#45A2DF" transform="translate(0,0)"/>
<path d="" fill="#4AB3F9" transform="translate(0,0)"/>
<path d="" fill="#49A8E6" transform="translate(0,0)"/>
<path d="" fill="#46A6E8" transform="translate(0,0)"/>
<path d="" fill="#47B1F7" transform="translate(0,0)"/>
<path d="" fill="#4AB6FD" transform="translate(0,0)"/>
<path d="" fill="#4AB3FD" transform="translate(0,0)"/>
<path d="" fill="#4AB5FD" transform="translate(0,0)"/>
<path d="" fill="#48B2FB" transform="translate(0,0)"/>
<path d="" fill="#49B3FD" transform="translate(0,0)"/>
<path d="" fill="#49B3FA" transform="translate(0,0)"/>
<path d="" fill="#48B3FC" transform="translate(0,0)"/>
<path d="" fill="#4AB4F9" transform="translate(0,0)"/>
<path d="" fill="#4AB5FB" transform="translate(0,0)"/>
<path d="" fill="#4BB4FC" transform="translate(0,0)"/>
<path d="" fill="#49B7FE" transform="translate(0,0)"/>
<path d="" fill="#46B1F7" transform="translate(0,0)"/>
<path d="" fill="#49B5FC" transform="translate(0,0)"/>
<path d="" fill="#4BB0F5" transform="translate(0,0)"/>
<path d="" fill="#4AB2F7" transform="translate(0,0)"/>
<path d="" fill="#4AB3FB" transform="translate(0,0)"/>
<path d="" fill="#48B4FC" transform="translate(0,0)"/>
<path d="" fill="#4CB5FD" transform="translate(0,0)"/>
<path d="" fill="#4AB2F9" transform="translate(0,0)"/>
<path d="" fill="#4BB5FE" transform="translate(0,0)"/>
<path d="" fill="#47B2F9" transform="translate(0,0)"/>
<path d="" fill="#48B3FD" transform="translate(0,0)"/>
<path d="" fill="#48B5FB" transform="translate(0,0)"/>
<path d="" fill="#4CB5FD" transform="translate(0,0)"/>
<path d="" fill="#4AB4FA" transform="translate(0,0)"/>
<path d="" fill="#4CB3FC" transform="translate(0,0)"/>
<path d="" fill="#49B2F9" transform="translate(0,0)"/>
<path d="" fill="#4CB6FC" transform="translate(0,0)"/>
<path d="" fill="#46B1FA" transform="translate(0,0)"/>
<path d="" fill="#4BB4FC" transform="translate(0,0)"/>
<path d="" fill="#48ABEB" transform="translate(0,0)"/>
<path d="" fill="#44A4E4" transform="translate(0,0)"/>
<path d="" fill="#4AB2FB" transform="translate(0,0)"/>
<path d="" fill="#49B3FB" transform="translate(0,0)"/>
<path d="" fill="#46B2FA" transform="translate(0,0)"/>
<path d="" fill="#4CB7FE" transform="translate(0,0)"/>
<path d="" fill="#4BB3FA" transform="translate(0,0)"/>
<path d="" fill="#48B0F5" transform="translate(0,0)"/>
<path d="" fill="#4DB4FC" transform="translate(0,0)"/>
<path d="" fill="#49B4FE" transform="translate(0,0)"/>
<path d="" fill="#49B3FB" transform="translate(0,0)"/>
<path d="" fill="#47B5FD" transform="translate(0,0)"/>
<path d="" fill="#46B1F8" transform="translate(0,0)"/>
<path d="" fill="#4BB5FB" transform="translate(0,0)"/>
<path d="" fill="#48B5FC" transform="translate(0,0)"/>
<path d="" fill="#48B3FB" transform="translate(0,0)"/>
<path d="" fill="#48B6FD" transform="translate(0,0)"/>
<path d="" fill="#49B0F7" transform="translate(0,0)"/>
<path d="" fill="#49B3FC" transform="translate(0,0)"/>
<path d="" fill="#48B5FC" transform="translate(0,0)"/>
<path d="" fill="#49ABEE" transform="translate(0,0)"/>
<path d="" fill="#47A8E9" transform="translate(0,0)"/>
<path d="" fill="#48B2FC" transform="translate(0,0)"/>
<path d="" fill="#47B1FB" transform="translate(0,0)"/>
<path d="" fill="#47A3E4" transform="translate(0,0)"/>
<path d="" fill="#469EDC" transform="translate(0,0)"/>
<path d="" fill="#49AEF4" transform="translate(0,0)"/>
<path d="" fill="#47A3E1" transform="translate(0,0)"/>
<path d="" fill="#469FDD" transform="translate(0,0)"/>
<path d="" fill="#49B3F9" transform="translate(0,0)"/>
<path d="" fill="#48B6FE" transform="translate(0,0)"/>
<path d="" fill="#49B3FB" transform="translate(0,0)"/>
<path d="" fill="#4AB2FC" transform="translate(0,0)"/>
<path d="" fill="#48B2F9" transform="translate(0,0)"/>
<path d="" fill="#4BB3FB" transform="translate(0,0)"/>
<path d="" fill="#44A9ED" transform="translate(0,0)"/>
<path d="" fill="#46B3FB" transform="translate(0,0)"/>
<path d="" fill="#49B5FB" transform="translate(0,0)"/>
<path d="" fill="#48B5FB" transform="translate(0,0)"/>
<path d="" fill="#49B2FA" transform="translate(0,0)"/>
<path d="" fill="#4BB4FA" transform="translate(0,0)"/>
<path d="" fill="#48B3FA" transform="translate(0,0)"/>
<path d="" fill="#48B3F9" transform="translate(0,0)"/>
<path d="" fill="#49B5FC" transform="translate(0,0)"/>
<path d="" fill="#4AB3FB" transform="translate(0,0)"/>
<path d="" fill="#48B2FA" transform="translate(0,0)"/>
<path d="" fill="#4BB5FC" transform="translate(0,0)"/>
<path d="" fill="#4AB5FC" transform="translate(0,0)"/>
<path d="" fill="#48B3F9" transform="translate(0,0)"/>
<path d="" fill="#48B3FB" transform="translate(0,0)"/>
<path d="" fill="#49B5FD" transform="translate(0,0)"/>
<path d="" fill="#4AB3FE" transform="translate(0,0)"/>
<path d="" fill="#49B4FB" transform="translate(0,0)"/>
<path d="" fill="#4BB5FC" transform="translate(0,0)"/>
<path d="" fill="#4BB7FD" transform="translate(0,0)"/>
<path d="" fill="#4AB7FC" transform="translate(0,0)"/>
<path d="" fill="#4AB6FC" transform="translate(0,0)"/>
<path d="" fill="#4AB6FC" transform="translate(0,0)"/>
<path d="" fill="#4CB6FD" transform="translate(0,0)"/>
<path d="" fill="#45A6E6" transform="translate(0,0)"/>
<path d="" fill="#4BB6FB" transform="translate(0,0)"/>
<path d="" fill="#4AB4FB" transform="translate(0,0)"/>
<path d="" fill="#4CB5FC" transform="translate(0,0)"/>
<path d="" fill="#48B1FC" transform="translate(0,0)"/>
<path d="" fill="#48A9ED" transform="translate(0,0)"/>
<path d="" fill="#48AAED" transform="translate(0,0)"/>
<path d="" fill="#45A7EB" transform="translate(0,0)"/>
<path d="" fill="#4BB5FD" transform="translate(0,0)"/>
<path d="" fill="#49B3FB" transform="translate(0,0)"/>
<path d="" fill="#49A8EA" transform="translate(0,0)"/>
<path d="" fill="#4AB0F8" transform="translate(0,0)"/>
<path d="" fill="#4BB4FB" transform="translate(0,0)"/>
<path d="" fill="#47B1F9" transform="translate(0,0)"/>
<path d="" fill="#48B3FA" transform="translate(0,0)"/>
<path d="" fill="#4AB3F9" transform="translate(0,0)"/>
<path d="" fill="#48B3FA" transform="translate(0,0)"/>
<path d="" fill="#45ABED" transform="translate(0,0)"/>
<path d="" fill="#47AAEE" transform="translate(0,0)"/>
<path d="" fill="#46ACEA" transform="translate(0,0)"/>
<path d="" fill="#44A8EB" transform="translate(0,0)"/>
<path d="" fill="#47ABEC" transform="translate(0,0)"/>
<path d="" fill="#49AAEB" transform="translate(0,0)"/>
<path d="" fill="#46A9EA" transform="translate(0,0)"/>
<path d="" fill="#47AAEC" transform="translate(0,0)"/>
<path d="" fill="#47A8EB" transform="translate(0,0)"/>
<path d="" fill="#47AAEB" transform="translate(0,0)"/>
<path d="" fill="#46A9EB" transform="translate(0,0)"/>
<path d="" fill="#45AAED" transform="translate(0,0)"/>
<path d="" fill="#47AAEB" transform="translate(0,0)"/>
</svg>
